<?xml version="1.0" encoding="UTF-8"?>
<svg width="1040px" height="1109px" viewBox="0 0 1040 1109" version="1.1" xmlns="http://www.w3.org/2000/svg" xmlns:xlink="http://www.w3.org/1999/xlink">
    <!-- Generator: Sketch 49.3 (51167) - http://www.bohemiancoding.com/sketch -->
    <title>16-board-sponge-school-university-college-learning</title>
    <desc>Created with Sketch.</desc>
    <defs></defs>
    <g id="Page-1" stroke="none" stroke-width="1" fill="none" fill-rule="evenodd" opacity="0.2">
        <g id="about" transform="translate(-1481.000000, -268.000000)" fill-rule="nonzero">
            <g id="18-laboratory-lab-flask-experiment-bulb-idea-creative" transform="translate(1481.000000, 0.000000)">
                <g id="16-board-sponge-school-university-college-learning" transform="translate(0.000000, 268.000000)">
                    <path d="M554.670278,17.2650795 L485.334056,17.2650795 L485.334056,148.36746 C485.334056,153.139097 481.457727,157 476.667028,157 C471.876328,157 468,153.139097 468,148.36746 L468,8.63253973 C468,3.86090339 471.876328,0 476.667028,0 L563.337306,0 C568.123672,0 572,3.86090339 572,8.63253973 L572,148.36746 C572,153.139097 568.123672,157 563.337306,157 C558.546606,157 554.670278,153.139097 554.670278,148.36746 L554.670278,17.2650795 Z M520.002167,155.381399 C515.211467,155.381399 511.335139,151.520495 511.335139,146.748859 L511.335139,94.9536207 C511.335139,90.1841425 515.211467,86.321081 520.002167,86.321081 C524.792866,86.321081 528.669195,90.1819844 528.669195,94.9536207 L528.669195,146.748859 C528.669195,151.520495 524.792866,155.381399 520.002167,155.381399 Z" id="Shape" fill="#FFFFFF"></path>
                    <path d="M858.316431,1109 L771.569421,1109 C766.77424,1109 762.894286,1105.12389 762.894286,1100.33346 C762.894286,1095.54303 766.77424,1091.66692 771.569421,1091.66692 L858.316431,1091.66692 C863.111611,1091.66692 866.991566,1095.54303 866.991566,1100.33346 C866.991566,1105.12389 863.111611,1109 858.316431,1109 Z M766.858822,1005.00586 C763.774812,1005.00586 760.792734,1003.38089 759.233379,1000.48626 L711.893168,913.823035 C709.605102,909.624097 711.147107,904.361341 715.36756,902.075541 C719.553312,899.757242 724.838638,901.312885 727.144055,905.529157 L774.449565,992.192383 C776.752814,996.391321 775.195627,1001.65408 770.992524,1003.93988 C769.671735,1004.66787 768.249013,1005.00586 766.858822,1005.00586 Z M771.569421,1109 C768.50276,1109 765.538033,1107.37502 763.943977,1104.4804 L659.846697,913.823035 C657.558631,909.624097 659.100636,904.361341 663.321089,902.075541 C667.506841,899.757242 672.792167,901.312885 675.097584,905.529157 L779.194864,1096.18652 C781.482931,1100.38546 779.940926,1105.64822 775.720473,1107.93402 C774.417034,1108.662 772.992143,1109 771.569421,1109 Z M858.316431,1109 C855.249771,1109 852.285043,1107.37502 850.690987,1104.4804 L746.593708,913.823035 C744.305641,909.624097 745.847646,904.361341 750.068099,902.075541 C754.253852,899.757242 759.539177,901.312885 761.844594,905.529157 L865.941874,1096.18652 C868.229941,1100.38546 866.687936,1105.64822 862.467483,1107.93402 C861.164044,1108.662 859.739153,1109 858.316431,1109 Z M268.426785,1109 L181.677606,1109 C176.882426,1109 173.002472,1105.12389 173.002472,1100.33346 C173.002472,1095.54303 176.882426,1091.66692 181.677606,1091.66692 L268.426785,1091.66692 C273.221966,1091.66692 277.10192,1095.54303 277.10192,1100.33346 C277.10192,1105.12389 273.221966,1109 268.426785,1109 Z M268.420279,1109 C267.014907,1109 265.590016,1108.662 264.277902,1107.93402 C260.068293,1105.64822 258.517613,1100.38546 260.812186,1096.18652 L364.911634,905.529157 C367.208376,901.315052 372.493702,899.757242 376.677286,902.075541 C380.886895,904.361341 382.437575,909.624097 380.143002,913.823035 L276.045722,1104.4804 C274.469017,1107.37502 271.493445,1109 268.420279,1109 Z M233.71974,1109 C232.314368,1109 230.889477,1108.662 229.577363,1107.95135 C225.367754,1105.65038 223.817073,1100.38546 226.111647,1096.18652 L282.87956,992.192383 C285.182808,987.978278 290.470303,986.437801 294.645211,988.721434 C298.85482,991.0224 300.405501,996.287323 298.110928,1000.48626 L241.343014,1104.4804 C239.768478,1107.37502 236.792906,1109 233.71974,1109 Z M181.668931,1109 C180.263559,1109 178.838668,1108.662 177.526554,1107.93402 C173.316945,1105.64822 171.766265,1100.38546 174.060838,1096.18652 L278.160286,905.529157 C280.457028,901.315052 285.751029,899.757242 289.925938,902.075541 C294.135547,904.361341 295.686227,909.624097 293.391654,913.823035 L189.292206,1104.4804 C187.719838,1107.37502 184.744266,1109 181.668931,1109 Z M684.82241,1039.66985 L355.175964,1039.66985 C350.380783,1039.66985 346.500829,1035.79374 346.500829,1031.00331 C346.500829,1026.21288 350.380783,1022.33677 355.175964,1022.33677 L684.82241,1022.33677 C689.617591,1022.33677 693.497545,1026.21288 693.497545,1031.00331 C693.497545,1035.79374 689.617591,1039.66985 684.82241,1039.66985 Z" id="Shape" fill="#FFFFFF"></path>
                    <path d="M944.806251,224.951727 C944.760261,224.952444 944.714183,224.952803 944.668021,224.952803 L95.3319791,224.952803 C95.2857858,224.952803 95.2396772,224.952443 95.1936559,224.951725 C90.5213968,225.025148 86.7395717,228.811601 86.6661297,233.471281 C86.6668479,233.517247 86.6672084,233.563301 86.6672084,233.609439 L86.6672084,805.07296 C86.6672084,809.859112 82.7909205,813.73176 78.0002708,813.73176 C73.2096211,813.73176 69.3333333,809.859112 69.3333333,805.07296 L69.3333333,233.609439 C69.3333333,219.285618 80.9946978,207.633038 95.3319791,207.633038 C95.3974859,207.633038 95.4628217,207.633762 95.527979,207.635202 L944.472021,207.635202 C944.537178,207.633762 944.602514,207.633038 944.668021,207.633038 C959.005302,207.633038 970.668833,219.285618 970.668833,233.609439 L970.668833,799.661209 C970.668833,804.447361 966.792546,808.32001 962.001896,808.32001 C957.211246,808.32001 953.334958,804.447361 953.334958,799.661209 L953.334958,233.609439 C953.334958,228.886721 949.516278,225.025956 944.806251,224.951727 Z M987.998375,216.294003 C987.998375,201.970182 976.339177,190.317601 962.001896,190.317601 L78.0002708,190.317601 C63.6629895,190.317601 51.9994583,201.970182 51.9994583,216.294003 L51.9994583,805.07296 C51.9994583,809.859112 48.1231705,813.73176 43.3325208,813.73176 C38.5418711,813.73176 34.6655833,809.859112 34.6655833,805.07296 L34.6655833,216.294003 C34.6655833,192.415196 54.1076909,173 78.0002708,173 L962.001896,173 C985.898809,173 1005.33225,192.413031 1005.33225,216.294003 L1005.33225,805.07296 C1005.33225,809.859112 1001.45596,813.73176 996.665312,813.73176 C991.874663,813.73176 987.998375,809.859112 987.998375,805.07296 L987.998375,216.294003 Z M17.333875,865.684564 L1022.66612,865.684564 L1022.66612,848.366962 L17.333875,848.366962 L17.333875,865.684564 Z M1031.33306,883 L8.66693751,883 C3.8762878,883 0,879.127351 0,874.343364 L0,839.708162 C0,834.92201 3.8762878,831.049361 8.66693751,831.049361 L1031.33306,831.049361 C1036.12371,831.049361 1040,834.92201 1040,839.708162 L1040,874.343364 C1040,879.127351 1036.12371,883 1031.33306,883 Z" id="Shape" fill="#FFFFFF"></path>
                    <path d="M892.36344,814 C887.589582,814 883.72688,810.142348 883.72688,805.37473 L883.72688,762.250539 L728.27312,762.250539 L728.27312,805.37473 C728.27312,810.142348 724.410418,814 719.63656,814 C714.862701,814 711,810.142348 711,805.37473 L711,753.62527 C711,748.857652 714.862701,745 719.63656,745 L892.36344,745 C897.137299,745 901,748.857652 901,753.62527 L901,805.37473 C901,810.142348 897.137299,814 892.36344,814 Z M789.234278,796.749461 C784.477693,796.749461 780.530785,792.891809 780.530785,788.124191 C780.530785,783.35873 784.30928,779.501078 789.065865,779.501078 L789.234278,779.501078 C794.02541,779.501078 797.870838,783.35873 797.870838,788.124191 C797.870838,792.891809 794.02541,796.749461 789.234278,796.749461 Z M823.780518,814 C819.023932,814 815.077024,810.142348 815.077024,805.37473 C815.077024,800.607113 818.855519,796.749461 823.612105,796.749461 L823.780518,796.749461 C828.571649,796.749461 832.417078,800.607113 832.417078,805.37473 C832.417078,810.142348 828.571649,814 823.780518,814 Z M858.324598,796.749461 C853.568013,796.749461 849.621105,792.891809 849.621105,788.124191 C849.621105,783.35873 853.3996,779.501078 858.156185,779.501078 L858.324598,779.501078 C863.11573,779.501078 866.961158,783.35873 866.961158,788.124191 C866.961158,792.891809 863.113571,796.749461 858.324598,796.749461 Z M754.688038,814 C749.931453,814 745.984545,810.142348 745.984545,805.37473 C745.984545,800.607113 749.76304,796.749461 754.519625,796.749461 L754.688038,796.749461 C759.47917,796.749461 763.324598,800.607113 763.324598,805.37473 C763.324598,810.142348 759.47917,814 754.688038,814 Z" id="Shape" fill="#FFFFFF"></path>
                    <path d="M337.36344,814 L164.63656,814 C159.864861,814 156,810.198375 156,805.5 C156,800.801625 159.862701,797 164.63656,797 L337.36344,797 C342.137299,797 346,800.801625 346,805.5 C346,810.198375 342.137299,814 337.36344,814 Z" id="Shape" fill="#FFFFFF"></path>
                    <path d="M290.742777,1006 C289.649845,1006 288.539426,1005.79327 287.463981,1005.36443 C282.991702,1003.54348 280.829882,998.406114 282.639778,993.904324 C287.813719,981.034524 306.126891,959.765927 338.206637,971.327194 C342.757606,972.976604 345.113968,978.010605 343.483313,982.580571 C341.835172,987.150538 336.831728,989.470708 332.298245,987.889474 C308.23625,979.178388 299.724494,998.285158 298.845776,1000.49977 C297.470868,1003.92174 294.200815,1006 290.742777,1006 Z" id="Shape" fill="#FFFFFF"></path>
                    <path d="M415.125391,657 C376.047795,657 322.247439,599.86665 286.050383,537.100526 L283.526666,532.65018 C281.195419,528.470536 282.689753,523.192924 286.861346,520.858387 C291.043751,518.541175 296.296628,520.028955 298.627876,524.191274 L301.034814,528.453211 C346.911522,608.002879 402.580337,649.825306 423.834051,637.476948 C432.1967,632.638956 435.998494,618.731354 434.536598,598.34422 C434.190587,593.575528 437.780449,589.430534 442.544586,589.075373 C447.258983,588.737536 451.447876,592.341125 451.785237,597.094658 C454.302466,632.199336 442.678665,646.581209 432.484321,652.465195 C427.153592,655.562029 421.325473,657 415.125391,657 Z M266.275865,485.110521 C262.820082,485.110521 259.561093,483.029361 258.224626,479.612015 C233.33131,416.016459 233.8114,367.274881 259.47459,352.403578 C270.970799,345.772454 291.73361,343.351293 325.346398,369.423175 C329.122241,372.351091 329.814263,377.797622 326.883984,381.587455 C323.977493,385.377287 318.538636,386.05296 314.754142,383.127209 C294.743904,367.597558 277.756936,361.84351 268.13351,367.39399 C253.856239,375.666653 251.399562,414.697597 274.324941,473.284077 C276.074459,477.734424 273.87729,482.775984 269.433214,484.519307 C268.397344,484.924277 267.33336,485.110521 266.275865,485.110521 Z M276.649702,656.880891 C269.478627,656.880891 263.825676,654.96865 259.49189,652.465195 C249.295384,646.579043 237.671583,632.182011 240.188812,597.094658 C242.77308,560.989465 259.500541,513.854776 286.056871,467.785572 C299.700509,444.117526 314.76063,422.699558 330.828507,404.105557 C370.691115,357.969218 408.704728,338.59776 432.490809,352.403578 C449.86704,362.454214 455.97413,388.066985 449.698359,424.559824 C448.887396,429.280873 444.43467,432.460001 439.705135,431.632735 C434.999387,430.820628 431.839876,426.337797 432.650839,421.616749 C437.466877,393.64995 434.171124,373.364601 423.840539,367.39399 C411.059764,360.050378 381.4088,372.045739 343.903391,415.44257 C328.774068,432.953762 313.956155,454.051219 301.041301,476.450212 C276.113385,519.693284 259.809788,565.255734 257.435289,598.346386 C255.999344,618.445492 259.902778,632.708256 268.137836,637.479114 C277.692059,642.994945 294.679027,637.310196 314.706566,621.813029 C318.482409,618.885113 323.906128,619.562951 326.836407,623.370109 C329.760199,627.142616 329.066015,632.591313 325.281521,635.517063 C304.380306,651.705063 288.459483,656.880891 276.649702,656.880891 Z M400.832982,537.150335 C399.397037,537.150335 397.935142,536.795174 396.592187,536.032876 C392.435732,533.681014 390.958699,528.403402 393.305085,524.241083 C402.859308,507.256136 411.044626,490.100106 417.65127,473.249427 C419.392137,468.783922 424.409294,466.583653 428.859858,468.342136 C433.303934,470.100618 435.498941,475.127019 433.751586,479.577365 C426.857321,497.173016 418.328154,515.071854 408.376018,532.734639 C406.788693,535.560771 403.856252,537.150335 400.832982,537.150335 Z M233.348611,555.237582 C232.410057,555.237582 231.456364,555.085989 230.51781,554.763312 C193.425451,541.888709 173,523.312033 173,502.435469 C173,481.524256 193.518441,462.895605 230.779481,450.005843 C235.238695,448.431438 240.214763,450.835275 241.776137,455.37008 C243.339673,459.885395 240.939223,464.827337 236.419457,466.382251 C207.540529,476.380912 190.298378,489.848894 190.298378,502.435469 C190.298378,514.972235 207.447539,528.422893 236.175087,538.386904 C240.694853,539.961308 243.08449,544.883759 241.523116,549.418565 C240.283965,552.987504 236.929823,555.237582 233.348611,555.237582 Z M346.001081,571.733099 L337.731423,571.665965 C332.949986,571.581506 329.156842,567.622755 329.241183,562.834572 C329.325523,558.063714 332.746705,554.291207 338.051483,554.341016 L346.001081,554.40815 C437.756661,554.40815 501.701622,527.017406 501.701622,502.435469 C501.701622,477.851367 437.756661,450.460623 346.001081,450.460623 L337.502191,450.545082 C332.645064,451.036677 328.784881,446.822384 328.700541,442.034201 C328.616201,437.248184 332.417994,433.304592 337.199431,433.220133 L346.001081,433.135674 C429.865452,433.135674 519,457.429584 519,502.433304 C519.002163,547.437024 429.865452,571.733099 346.001081,571.733099 Z M346.001081,537.083201 C326.918585,537.083201 311.4,521.536225 311.4,502.435469 C311.4,483.334713 326.918585,467.785572 346.001081,467.785572 C365.083578,467.785572 380.6,483.334713 380.6,502.435469 C380.6,521.536225 365.083578,537.083201 346.001081,537.083201 Z M346.001081,485.110521 C336.464158,485.110521 328.700541,492.876429 328.700541,502.435469 C328.700541,511.99451 336.464158,519.760418 346.001081,519.760418 C355.538004,519.760418 363.301622,511.99451 363.301622,502.435469 C363.301622,492.876429 355.538004,485.110521 346.001081,485.110521 Z" id="Shape" fill="#FD3259"></path>
                    <path d="M840.347808,485.538794 L580.656521,485.538794 C575.871629,485.538794 572,481.66825 572,476.884699 C572,472.101147 575.871629,468.230603 580.656521,468.230603 L840.347808,468.230603 C845.128371,468.230603 849,472.101147 849,476.884699 C849,481.66825 845.128371,485.538794 840.347808,485.538794 Z M840.347808,554.769397 L580.656521,554.769397 C575.871629,554.769397 572,550.898853 572,546.115301 C572,541.33175 575.871629,537.461206 580.656521,537.461206 L840.347808,537.461206 C845.128371,537.461206 849,541.33175 849,546.115301 C849,550.898853 845.128371,554.769397 840.347808,554.769397 Z M840.347808,416.308192 L580.656521,416.308192 C575.871629,416.308192 572,412.437647 572,407.654096 C572,402.870544 575.871629,399 580.656521,399 L840.347808,399 C845.128371,399 849,402.870544 849,407.654096 C849,412.437647 845.128371,416.308192 840.347808,416.308192 Z M701.847808,624 L580.656521,624 C575.871629,624 572,620.129456 572,615.345904 C572,610.562353 575.871629,606.691808 580.656521,606.691808 L701.847808,606.691808 C706.628371,606.691808 710.5,610.562353 710.5,615.345904 C710.5,620.129456 706.628371,624 701.847808,624 Z" id="path-4" fill="#FFFFFF"></path>
                </g>
            </g>
        </g>
    </g>
</svg>