<?xml version="1.0" encoding="UTF-8"?>
<svg width="56px" height="44px" viewBox="0 0 56 44" version="1.1" xmlns="http://www.w3.org/2000/svg" xmlns:xlink="http://www.w3.org/1999/xlink">
    <!-- Generator: Sketch 49 (51002) - http://www.bohemiancoding.com/sketch -->
    <title>Combined Shape</title>
    <desc>Created with Sketch.</desc>
    <defs></defs>
    <g id="Page-1" stroke="none" stroke-width="1" fill="none" fill-rule="evenodd">
        <g id="homepage" transform="translate(-1252.000000, -1471.000000)" fill="#FD3259">
            <path d="M1264,1471 L1272,1471 L1272,1479 L1264,1479 L1264,1471 Z M1252,1471 L1260,1471 L1260,1479 L1252,1479 L1252,1471 Z M1264,1483 L1272,1483 L1272,1491 L1264,1491 L1264,1483 Z M1264,1495 L1272,1495 L1272,1503 L1264,1503 L1264,1495 Z M1276,1495 L1284,1495 L1284,1503 L1276,1503 L1276,1495 Z M1276,1483 L1284,1483 L1284,1491 L1276,1491 L1276,1483 Z M1288,1483 L1296,1483 L1296,1491 L1288,1491 L1288,1483 Z M1288,1495 L1296,1495 L1296,1503 L1288,1503 L1288,1495 Z M1288,1471 L1296,1471 L1296,1479 L1288,1479 L1288,1471 Z M1300,1471 L1308,1471 L1308,1479 L1300,1479 L1300,1471 Z M1276,1507 L1284,1507 L1284,1515 L1276,1515 L1276,1507 Z" id="Combined-Shape"></path>
        </g>
    </g>
</svg>