<?xml version="1.0" encoding="UTF-8"?>
<svg width="903px" height="1252px" viewBox="0 0 903 1252" version="1.1" xmlns="http://www.w3.org/2000/svg" xmlns:xlink="http://www.w3.org/1999/xlink">
    <!-- Generator: Sketch 49 (51002) - http://www.bohemiancoding.com/sketch -->
    <title>18-laboratory-lab-flask-experiment-bulb-idea-creative</title>
    <desc>Created with Sketch.</desc>
    <defs></defs>
    <g id="Page-1" stroke="none" stroke-width="1" fill="none" fill-rule="evenodd" opacity="0.2">
        <g id="homepage" transform="translate(-1621.000000, -148.000000)" fill="#FFFFFF" fill-rule="nonzero">
            <g id="18-laboratory-lab-flask-experiment-bulb-idea-creative" transform="translate(1510.000000, 0.000000)">
                <g style="mix-blend-mode: screen;" transform="translate(617.000000, 800.500000) rotate(-25.000000) translate(-617.000000, -800.500000) translate(277.000000, 161.000000)">
                    <path d="M530.0675,578.9875 C524.565,578.9875 520,574.5175 520,568.995 C520,563.4725 524.37,559 529.8725,559 L530.0675,559 C535.575,559 540.0625,563.47 540.0625,568.995 C540.0625,574.52 535.575,578.9875 530.0675,578.9875 Z" id="Shape"></path>
                    <path d="M450.0725,358.9875 C444.57,358.9875 440,354.5175 440,348.995 C440,343.47 444.375,339 449.8775,339 L450.0725,339 C455.575,339 460.0675,343.47 460.0675,348.995 C460.07,354.5175 455.5775,358.9875 450.0725,358.9875 Z" id="Shape"></path>
                    <path d="M250.09,79.985 C244.575,79.985 240,75.515 240,69.9925 C240,64.47 244.3725,60 249.895,60 L250.09,60 C255.6125,60 260.0825,64.47 260.0825,69.9925 C260.0825,75.515 255.6125,79.985 250.09,79.985 Z" id="Shape"></path>
                    <path d="M530.512141,418.555398 C532.849018,418.723365 535.158081,419.766895 537.01,421.62 C537.276459,421.886288 537.523293,422.165218 537.750697,422.455064 C626.64041,486.201384 679.6,589.275477 679.6,698.7675 C679.600196,699.200406 679.573072,699.626835 679.520241,700.045144 C679.098077,817.551132 619.523771,924.180152 519.64,986.61 L519.64,1048.5375 C519.6425,1054.06 515.155,1058.53 509.6475,1058.53 L169.88,1058.53 C164.3575,1058.53 159.885,1054.06 159.885,1048.5375 L159.885,986.61 C59.655,923.9575 0,816.79 0,698.7875 C0,698.710826 0.000861656962,698.634355 0.00257582451,698.558095 C0.076093459,588.55779 53.6063514,485.083611 143.297881,421.464827 C143.513001,421.276287 143.735486,421.097819 143.964582,420.929676 C150.927224,415.57655 184.275687,399 329.765,399 C466.79246,399 517.556078,413.726994 530.512144,418.555399 L530.512141,418.555398 Z M493.968658,429.941176 C465.618876,424.761718 414.912004,418.985 329.765,418.985 C253.455505,418.985 209.922719,423.53091 185.54597,428.013346 C213.890734,433.192614 264.59763,438.97 349.7525,438.97 C426.06827,438.97 469.59631,434.423751 493.968658,429.941176 Z M151.418503,440.261983 C69.0212258,500.364641 19.9875,596.595651 19.9875,698.785 C19.9875,698.859446 19.9866884,698.9337 19.9850737,699.007755 C20.0604715,811.733156 78.0156883,913.94812 175.04,972.48 C178.035,974.2775 179.87,977.535 179.87,981.03 L179.87,1038.5475 L499.6525,1038.5475 L499.6525,981.03 C499.6525,977.5375 501.4875,974.2775 504.4925,972.48 C601.5725,913.91 659.5375,811.6 659.5375,698.7875 C659.5375,698.362399 659.563883,697.943534 659.615114,697.532465 C659.223141,596.088071 610.556324,500.657621 528.922818,440.762657 C513.304365,447.721924 469.524103,458.9575 349.7525,458.9575 C220.083008,458.9575 167.656189,445.770045 151.418503,440.261983 Z M339.76,1278.3725 C264.5,1278.3725 241.81,1234.7325 240.885,1232.8775 C238.415,1227.94 240.4175,1221.95 245.355,1219.47 C250.265,1216.9925 256.2175,1218.9825 258.725,1223.8625 C259.515,1225.365 277.6475,1258.39 339.7625,1258.39 C401.9525,1258.39 420.065,1225.2675 420.805,1223.8625 C423.345,1219.02 429.355,1217.07 434.2325,1219.5675 C439.115,1222.0675 441.1025,1227.98 438.6475,1232.8775 C437.7075,1234.7325 415.0275,1278.3725 339.76,1278.3725 Z M149.885,1118.4875 C144.6075,1118.4875 140.195,1114.35 139.9125,1109.02 C139.63,1103.5175 143.855,1098.815 149.3675,1098.5225 L529.085,1078.5375 C534.7875,1078.0875 539.315,1082.4775 539.5875,1087.9825 C539.9,1093.485 535.6475,1098.19 530.14,1098.4825 L150.4225,1118.4675 C150.245,1118.4875 150.06,1118.4875 149.885,1118.4875 Z M149.885,1178.445 C144.6075,1178.445 140.195,1174.31 139.9125,1168.98 C139.63,1163.475 143.855,1158.7725 149.3675,1158.48 L529.085,1138.495 C534.7875,1137.89 539.315,1142.4375 539.5875,1147.94 C539.9,1153.445 535.6475,1158.1475 530.14,1158.44 L150.4225,1178.425 C150.245,1178.445 150.06,1178.445 149.885,1178.445 Z M469.675,1238.4025 L209.8525,1238.4025 C207.1975,1238.4025 204.66,1237.3475 202.7875,1235.475 L162.815,1195.5025 C160.94,1193.63 159.8875,1191.09 159.8875,1188.4375 L159.8875,1048.5375 C159.8875,1043.015 164.3575,1038.545 169.8825,1038.545 L509.6475,1038.545 C515.155,1038.545 519.6425,1043.015 519.6425,1048.5375 L519.6425,1188.4375 C519.6425,1191.0925 518.5875,1193.63 516.7125,1195.5025 L476.7425,1235.475 C474.865,1237.3475 472.3325,1238.4025 469.675,1238.4025 Z M213.99,1218.415 L465.54,1218.415 L499.655,1184.3 L499.655,1058.53 L179.8725,1058.53 L179.8725,1184.3 L213.99,1218.415 Z" id="Combined-Shape"></path>
                    <path d="M579.637803,623.088965 C570.815303,623.088965 562.035303,621.371465 555.165303,617.936465 C547.045303,613.876465 532.250303,613.876465 524.130303,617.936465 C510.430303,624.806465 488.920303,624.806465 475.220303,617.936465 C467.105303,613.876465 452.310303,613.876465 444.190303,617.936465 C430.490303,624.806465 408.980303,624.806465 395.280303,617.936465 C387.160303,613.876465 372.365303,613.876465 364.250303,617.936465 C350.557803,624.786465 329.040303,624.786465 315.337803,617.936465 C307.217803,613.876465 292.422803,613.876465 284.325303,617.936465 C270.605303,624.806465 249.115303,624.806465 235.395303,617.936465 C227.267803,613.876465 212.472803,613.876465 204.382803,617.936465 C190.642803,624.786465 169.155303,624.786465 155.452803,617.936465 C147.332803,613.876465 132.557803,613.876465 124.440303,617.936465 C110.700303,624.806465 89.2203031,624.806465 75.5003031,617.936465 L55.5353031,607.943965 C50.5953031,605.486465 48.5878031,599.473965 51.0553031,594.536465 C53.5153031,589.636465 59.4978031,587.588965 64.4528031,590.066465 L84.4578031,600.058965 C92.5578031,604.118965 107.352803,604.118965 115.490303,600.058965 C129.190303,593.188965 150.690303,593.188965 164.410303,600.058965 C172.510303,604.118965 187.292803,604.118965 195.432803,600.058965 C209.115303,593.188965 230.602803,593.168965 244.342803,600.058965 C252.462803,604.118965 267.247803,604.118965 275.365303,600.058965 C289.085303,593.188965 310.565303,593.188965 324.285303,600.058965 C332.405303,604.118965 347.200303,604.118965 355.320303,600.058965 C369.012803,593.188965 390.520303,593.188965 404.222803,600.058965 C412.342803,604.118965 427.132803,604.118965 435.252803,600.058965 C448.952803,593.188965 470.462803,593.188965 484.162803,600.058965 C492.282803,604.118965 507.077803,604.118965 515.197803,600.058965 C528.897803,593.188965 550.402803,593.188965 564.102803,600.058965 C572.222803,604.118965 587.017803,604.118965 595.137803,600.058965 L615.122803,590.066465 C620.117803,587.568965 626.090303,589.618965 628.550303,594.536465 C631.010303,599.473965 629.020303,605.486465 624.062803,607.943965 L604.077803,617.936465 C597.245303,621.371465 588.422803,623.088965 579.637803,623.088965 Z" id="Shape"></path>
                    <path d="M379.8675,758.9575 C379.8675,725.8925 406.7625,699 439.8275,699 C472.89,699 499.7825,725.895 499.7825,758.9575 C499.7825,792.0175 472.89,818.9125 439.8275,818.9125 C434.28,818.9125 429.8325,814.445 429.8325,808.92 C429.8325,803.3975 434.28,798.9275 439.8275,798.9275 C461.84,798.9275 479.7975,780.99 479.7975,758.9575 C479.7975,736.9225 461.8375,718.985 439.8275,718.985 C417.7725,718.985 399.8525,736.9225 399.8525,758.9575 L399.8525,888.865 C399.8525,894.3875 395.365,898.8575 389.8625,898.8575 C384.32,898.8575 379.8675,894.3875 379.8675,888.865 L379.8675,758.9575 Z M180.003004,758.709682 C180.136985,725.758234 206.980139,699 239.96,699 C273.0225,699 299.9175,725.895 299.9175,758.9575 L299.9175,888.865 C299.915,894.3875 295.4475,898.8575 289.9225,898.8575 C284.4,898.8575 279.93,894.3875 279.93,888.865 L279.93,758.9575 C279.93,736.9225 262.005,718.985 239.96,718.985 C217.915,718.985 199.9875,736.9225 199.9875,758.9575 C199.9875,759.025004 199.986832,759.092351 199.985503,759.159535 C200.094681,781.099551 217.977429,798.9275 239.9575,798.9275 C245.48,798.9275 249.95,803.3975 249.95,808.92 C249.95,814.445 245.48,818.9125 239.9575,818.9125 C206.895,818.9125 180,792.0175 180,758.9575 C180,758.874652 180.001005,758.792042 180.003004,758.709682 Z M339.888281,901.665688 L299.9175,933.644312 L299.9175,1008.78 C299.915,1014.3025 295.4475,1018.7725 289.9225,1018.7725 C284.4,1018.7725 279.93,1014.3025 279.93,1008.78 L279.93,929.039327 C279.921715,928.607428 279.941301,928.175685 279.988433,927.746975 C280.137316,926.369381 280.565688,925.076113 281.215763,923.924959 C281.825643,922.841905 282.648702,921.85507 283.6775,921.03 L333.6425,881.0575 C335.489546,879.594854 337.698888,878.883859 339.892614,878.886408 C342.083913,878.883859 344.288667,879.594854 346.1325,881.0575 L396.1075,921.03 C397.069765,921.803959 397.851618,922.720387 398.446921,923.725098 C399.339194,925.219867 399.8525,926.967238 399.8525,928.835 L399.8525,1008.78 C399.8525,1014.3025 395.365,1018.7725 389.8625,1018.7725 C384.32,1018.7725 379.8675,1014.3025 379.8675,1008.78 L379.8675,933.643063 L339.888281,901.665688 Z M349.88,818.9125 L329.8925,818.9125 C324.3675,818.9125 319.8975,814.445 319.8975,808.92 C319.8975,803.3975 324.3675,798.9275 329.8925,798.9275 L349.88,798.9275 C355.4025,798.9275 359.87,803.3975 359.87,808.92 C359.8725,814.445 355.4025,818.9125 349.88,818.9125 Z" id="Combined-Shape"></path>
                    <path d="M129.95,319.9 C91.3825,319.9 60,288.515 60,249.95 C60,211.3825 91.3825,180 129.95,180 C168.5175,180 199.9,211.385 199.9,249.95 C199.9,288.5175 168.5175,319.9 129.95,319.9 Z M129.95,199.985 C102.4,199.985 79.9875,222.39 79.9875,249.95 C79.9875,277.51 102.4025,299.9125 129.95,299.9125 C157.4975,299.9125 179.915,277.5075 179.915,249.95 C179.915,222.3925 157.5,199.985 129.95,199.985 Z" id="Shape"></path>
                    <path d="M209.98,558.955 C193.4475,558.955 180,545.5075 180,528.9775 C180,512.4475 193.4475,499 209.98,499 C226.51,499 239.9575,512.4475 239.9575,528.9775 C239.9575,545.5075 226.51,558.955 209.98,558.955 Z M209.98,518.985 C204.465,518.985 199.985,523.475 199.985,528.9775 C199.985,534.4825 204.465,538.97 209.98,538.97 C215.4925,538.97 219.9725,534.4825 219.9725,528.9775 C219.9725,523.475 215.4925,518.985 209.98,518.985 Z" id="Shape"></path>
                    <path d="M549.975,259.9575 C533.4275,259.9575 520,246.51 520,229.98 C520,213.4475 533.4275,200 549.975,200 C566.4875,200 579.955,213.4475 579.955,229.98 C579.955,246.51 566.4875,259.9575 549.975,259.9575 Z M549.975,219.9875 C544.4725,219.9875 539.985,224.475 539.985,229.98 C539.985,235.4825 544.4725,239.9725 549.975,239.9725 C555.4825,239.9725 559.97,235.4825 559.97,229.98 C559.97,224.475 555.4825,219.9875 549.975,219.9875 Z" id="Shape"></path>
                    <path d="M399.98,518.965 C377.93,518.965 360,501.0275 360,478.995 C360,473.47 364.4625,469 370.005,469 C375.5075,469 379.995,473.47 379.995,478.995 C379.995,490.0225 388.935,498.98 399.98,498.98 C410.99,498.98 419.965,490.0225 419.965,478.995 C419.965,473.47 424.4175,469 429.96,469 C435.4625,469 439.955,473.47 439.955,478.995 C439.955,501.0275 421.995,518.965 399.98,518.965 Z" id="Shape"></path>
                    <path d="M369.975,239.93 C342.415,239.93 320,217.5225 320,189.965 C320,162.4075 342.415,140 369.975,140 C397.5325,140 419.935,162.405 419.935,189.965 C419.935,217.5225 397.5325,239.93 369.975,239.93 Z M369.975,159.9875 C353.4325,159.9875 339.985,173.435 339.985,189.9675 C339.985,206.4975 353.43,219.9475 369.975,219.9475 C386.485,219.9475 399.95,206.5 399.95,189.9675 C399.95,173.435 386.4825,159.9875 369.975,159.9875 Z" id="Shape"></path>
                    <path d="M499.985,59.9175 L489.99,59.9175 C484.4475,59.9175 480,55.4475 480,49.9225 C480,44.4 484.4475,39.93 489.99,39.93 L499.985,39.93 L499.985,9.9925 C499.985,4.47 504.4325,0 509.975,0 C515.4825,0 519.97,4.47 519.97,9.9925 L519.97,39.93 L529.96,39.93 C535.4675,39.93 539.955,44.4 539.955,49.9225 C539.955,55.4475 535.4675,59.9175 529.96,59.9175 L519.97,59.9175 L519.97,89.9375 C519.97,95.4575 515.4825,99.9275 509.975,99.9275 C504.4325,99.9275 499.985,95.4575 499.985,89.935 L499.985,59.9175 Z" id="Combined-Shape"></path>
                    <path d="M279.9875,338.9325 L269.9925,338.9325 C264.47,338.9325 260,334.4625 260,328.94 C260,323.4175 264.47,318.9475 269.9925,318.9475 L279.9875,318.9475 L279.9875,308.9925 C279.9875,303.47 284.4575,299 289.98,299 C295.505,299 299.975,303.47 299.975,308.9925 L299.975,318.9475 L309.965,318.9475 C315.4875,318.9475 319.9575,323.4175 319.9575,328.94 C319.9575,334.4625 315.49,338.9325 309.965,338.9325 L299.975,338.9325 L299.975,348.965 C299.9725,354.4875 295.505,358.9575 289.98,358.9575 C284.4575,358.9575 279.9875,354.4875 279.9875,348.965 L279.9875,338.9325 Z" id="Combined-Shape"></path>
                    <path d="M59.99,99.9325 L49.995,99.9325 C44.4725,99.9325 40,95.4625 40,89.94 C40,84.415 44.47,79.945 49.995,79.945 L59.99,79.945 L59.99,69.9925 C59.99,64.47 64.46,60 69.9825,60 C75.505,60 79.9775,64.47 79.9775,69.9925 L79.9775,79.945 L89.9675,79.945 C95.49,79.945 99.96,84.415 99.96,89.94 C99.96,95.4625 95.49,99.9325 89.9675,99.9325 L79.9775,99.9325 L79.9775,109.965 C79.975,115.485 75.505,119.955 69.9825,119.955 C64.46,119.955 59.99,115.485 59.99,109.9625 L59.99,99.9325 Z" id="Combined-Shape"></path>
                </g>
            </g>
        </g>
    </g>
</svg>