<?xml version="1.0" encoding="UTF-8"?>
<svg width="100px" height="100px" viewBox="0 0 100 100" version="1.1" xmlns="http://www.w3.org/2000/svg" xmlns:xlink="http://www.w3.org/1999/xlink">
    <!-- Generator: Sketch 49 (51002) - http://www.bohemiancoding.com/sketch -->
    <title>sigle</title>
    <desc>Created with Sketch.</desc>
    <defs></defs>
    <g id="Page-1" stroke="none" stroke-width="1" fill="none" fill-rule="evenodd">
        <g id="homepage" transform="translate(-860.000000, -682.000000)" fill="#FD3259">
            <g id="Middle" transform="translate(210.000000, 676.000000)">
                <g id="sigle" transform="translate(650.000000, 6.000000)">
                    <path d="M50,100 C22.3857625,100 0,77.6142375 0,50 C0,22.3857625 22.3857625,0 50,0 C77.6142375,0 100,22.3857625 100,50 C100,77.6142375 77.6142375,100 50,100 Z M28,42 L36,42 L36,34 L28,34 L28,42 Z M40,66 L48,66 L48,58 L40,58 L40,66 Z M16,66 L24,66 L24,58 L16,58 L16,66 Z M28,66 L36,66 L36,58 L28,58 L28,66 Z M28,54 L36,54 L36,46 L28,46 L28,54 Z M40,54 L48,54 L48,46 L40,46 L40,54 Z M52,34 L52,42 L60,42 L60,34 L52,34 Z M40,42 L48,42 L48,34 L40,34 L40,42 Z M64,34 L64,42 L72,42 L72,34 L64,34 Z M64,54 L72,54 L72,46 L64,46 L64,54 Z M64,66 L72,66 L72,58 L64,58 L64,66 Z M76,34 L76,42 L84,42 L84,34 L76,34 Z M76,54 L84,54 L84,46 L76,46 L76,54 Z M76,66 L84,66 L84,58 L76,58 L76,66 Z" id="Combined-Shape"></path>
                </g>
            </g>
        </g>
    </g>
</svg>